<svg width="16" height="16" viewBox="0 0 16 16" fill="none" xmlns="http://www.w3.org/2000/svg">
<g clip-path="url(#clip0_1156_27372)">
<path fill-rule="evenodd" clip-rule="evenodd" d="M0.833008 3.33301C0.833008 1.9523 1.9523 0.833008 3.33301 0.833008H12.6663C14.0471 0.833008 15.1663 1.9523 15.1663 3.33301V9.99967C15.1663 11.3804 14.0471 12.4997 12.6663 12.4997H3.33301C1.9523 12.4997 0.833008 11.3804 0.833008 9.99967V3.33301ZM3.33301 1.83301C2.50458 1.83301 1.83301 2.50458 1.83301 3.33301V9.99967C1.83301 10.8281 2.50458 11.4997 3.33301 11.4997H12.6663C13.4948 11.4997 14.1663 10.8281 14.1663 9.99967V3.33301C14.1663 2.50458 13.4948 1.83301 12.6663 1.83301H3.33301Z" fill="#141414"/>
<path fill-rule="evenodd" clip-rule="evenodd" d="M7.99967 11.4997C8.27582 11.4997 8.49967 11.7235 8.49967 11.9997V14.1663H9.99967C10.2758 14.1663 10.4997 14.3902 10.4997 14.6663C10.4997 14.9425 10.2758 15.1663 9.99967 15.1663H5.99967C5.72353 15.1663 5.49967 14.9425 5.49967 14.6663C5.49967 14.3902 5.72353 14.1663 5.99967 14.1663H7.49967V11.9997C7.49967 11.7235 7.72353 11.4997 7.99967 11.4997Z" fill="#141414"/>
<path fill-rule="evenodd" clip-rule="evenodd" d="M6.83301 9.99967C6.83301 9.72353 7.05687 9.49967 7.33301 9.49967H8.66634C8.94248 9.49967 9.16634 9.72353 9.16634 9.99967C9.16634 10.2758 8.94248 10.4997 8.66634 10.4997H7.33301C7.05687 10.4997 6.83301 10.2758 6.83301 9.99967Z" fill="#141414"/>
</g>
<defs>
<clipPath id="clip0_1156_27372">
<rect width="16" height="16" fill="white"/>
</clipPath>
</defs>
</svg>
