<svg width="22" height="20" viewBox="0 0 22 20" fill="none" xmlns="http://www.w3.org/2000/svg">
<path d="M7.63743 9.25872C8.16203 9.44084 8.45977 9.75586 8.49758 10.3022C8.54012 10.9076 8.28963 11.3605 7.82175 11.6952C7.55236 11.8921 7.24517 12.0102 6.92379 12.0693C6.31412 12.1874 5.69973 12.1923 5.09006 12.089C4.47567 11.9856 4.20628 11.5967 4.33862 10.9569C4.61273 9.63772 4.90575 8.31859 5.19404 7.00437C5.21767 6.901 5.24603 6.82225 5.37363 6.8124C6.06364 6.74842 6.74893 6.64013 7.44366 6.76318C7.69887 6.80748 7.94463 6.87147 8.17148 6.9896C8.95601 7.39322 9.03636 8.36781 8.34162 8.91417C8.14313 9.06675 7.921 9.1652 7.63743 9.25872ZM5.83206 9.76078C5.74227 10.189 5.6572 10.5828 5.57213 10.9716C5.53904 11.1193 5.55795 11.2374 5.72809 11.2473C6.12508 11.267 6.52207 11.2473 6.87653 11.0307C7.14592 10.8683 7.25934 10.6123 7.22154 10.2875C7.18373 9.97735 6.97105 9.8543 6.71112 9.77062C6.42283 9.68202 6.14399 9.82969 5.83206 9.76078ZM6.70639 7.60979C6.58351 7.69347 6.35193 7.49166 6.27632 7.75746C6.19597 8.05279 6.13926 8.35796 6.07309 8.66314C6.04946 8.7665 6.08255 8.86002 6.19125 8.86494C6.6166 8.88956 7.04194 8.89448 7.38695 8.57946C7.7225 8.27429 7.61853 7.80176 7.19318 7.65902C7.04194 7.61472 6.88598 7.61472 6.70639 7.60979Z" fill="#1F263E"/>
<path d="M17.8971 7.68352C17.656 6.99442 17.0464 6.83199 16.4225 6.768C15.8459 6.70893 15.2646 6.73846 14.688 6.80737C14.4895 6.83199 14.3903 6.91074 14.343 7.12732C14.0028 8.74178 13.6483 10.3563 13.3033 11.9707C13.2891 12.0298 13.2608 12.0938 13.3364 12.1676C13.4734 12.1676 13.6341 12.1676 13.7901 12.1676C14.3667 12.1676 14.5368 12.0249 14.6644 11.444C14.74 11.0995 14.8156 10.75 14.8865 10.4153C15.0047 10.371 15.0992 10.4055 15.1937 10.4104C16.0255 10.4399 16.8148 10.2972 17.4244 9.64746C17.9443 9.09618 18.1617 8.42677 17.8971 7.68352ZM16.8573 8.5449C16.7439 9.10602 16.2807 9.4555 15.6427 9.46042C15.2268 9.46042 15.189 9.4112 15.2788 8.97313C15.3544 8.61381 15.4348 8.25941 15.4962 7.90009C15.5246 7.7229 15.6096 7.65399 15.775 7.65399C15.9499 7.64906 16.1248 7.63922 16.2996 7.67368C16.7533 7.76227 16.9518 8.07237 16.8573 8.5449Z" fill="#1F263E"/>
<path d="M13.2332 6.86177C12.1415 6.44831 11.0923 6.52214 10.1896 7.3343C9.32472 8.112 9.0506 9.14566 9.1593 10.3073C9.22074 10.9718 9.49013 11.528 10.062 11.8676C10.7898 12.3008 11.5696 12.3155 12.3541 12.0743C12.529 12.0202 12.6613 11.8922 12.7086 11.7003C12.7795 11.4099 12.8409 11.1194 12.9118 10.7897C12.6661 10.9275 12.4676 11.0555 12.2407 11.1293C11.5271 11.3606 10.8134 11.0751 10.563 10.455C10.218 9.5985 10.7095 8.24982 11.5271 7.85605C12.1982 7.53611 12.8457 7.67885 13.4931 8.05294C13.5309 7.90527 13.5688 7.77237 13.6018 7.63947C13.6964 7.23093 13.616 7.00944 13.2332 6.86177Z" fill="#1F263E"/>
<path d="M2.26817 7.26562C2.91091 7.60525 3.42606 8.09255 3.80415 8.72258C4.03573 9.11144 4.00737 9.53966 3.74743 9.91375C3.21339 10.6914 2.50447 11.2624 1.68213 11.6562C1.12917 11.922 0.519508 11.6119 0.283203 10.9868C0.61403 10.8047 0.944857 10.6176 1.24733 10.3863C1.70103 10.0417 2.0933 9.64303 2.28707 9.07698C2.55173 8.47155 2.57536 7.86613 2.26817 7.26562Z" fill="#707070"/>
<path d="M19.9911 7.26562C20.6339 7.60033 21.149 8.09747 21.5318 8.72258C21.7634 9.10159 21.7445 9.51998 21.494 9.88914C20.9553 10.6865 20.2322 11.2673 19.3909 11.666C18.8427 11.922 18.2472 11.607 18.0156 10.9966C18.3275 10.8194 18.6442 10.6422 18.9325 10.4207C19.4004 10.0663 19.8163 9.66272 20.0148 9.07698C20.2842 8.46663 20.3031 7.86121 19.9911 7.26562Z" fill="#707070"/>
<path d="M2.26842 7.26528C2.57561 7.86579 2.54726 8.46629 2.2826 9.07172C1.88088 8.61888 1.37991 8.30878 0.850586 8.06267C1.12943 7.28005 1.76272 6.9355 2.26842 7.26528Z" fill="#1F263E"/>
<path d="M19.9906 7.26519C20.3025 7.86569 20.2836 8.4662 20.0095 9.07655C19.6125 8.62371 19.1163 8.31853 18.5586 8.05766C18.7429 7.62451 19.0076 7.30949 19.4235 7.14706C19.6361 7.05846 19.8205 7.12245 19.9906 7.26519Z" fill="#1F263E"/>
</svg>
