<svg width="42" height="42" viewBox="0 0 42 42" fill="none" xmlns="http://www.w3.org/2000/svg">
<g clip-path="url(#clip0_214_932)">
<rect width="42" height="42" fill="#213656"/>
<g clip-path="url(#clip1_214_932)">
<path d="M17.7338 20.6766C17.7338 22.3369 18.8777 23.2593 19.9785 23.2593C20.7745 23.2593 21.592 22.8249 22.0606 21.9358C22.0821 21.8811 22.1478 21.8596 22.1909 21.8929L23.1937 22.5332C23.226 22.5546 23.2486 22.6093 23.226 22.6415C22.5614 23.9982 21.2969 24.6385 20.0324 24.6385C18.1475 24.6385 16.2507 23.2389 16.2507 20.6777C16.2507 18.1166 18.1475 16.7169 20.0324 16.7169C21.2969 16.7169 22.5604 17.3572 23.226 18.7139C23.2476 18.7461 23.226 18.8008 23.1937 18.8223L22.1909 19.4626C22.1478 19.4947 22.0821 19.4733 22.0606 19.4197C21.592 18.5295 20.7745 18.0962 19.9785 18.0962C18.868 18.094 17.7338 19.0271 17.7338 20.6766Z" fill="white"/>
<path d="M23.8044 22.7927C23.8044 24.453 25.2434 25.0504 26.4853 24.2578L27.2479 23.7698C27.3244 23.7151 27.3901 23.759 27.3901 23.8352V24.3886C27.3901 24.4315 27.4332 24.4755 27.4774 24.4755H28.7193C28.7624 24.4755 28.8065 24.4326 28.8065 24.3886V19.1365C28.8065 19.0936 28.7634 19.0497 28.7193 19.0497H27.4774C27.4343 19.0497 27.3901 19.0926 27.3901 19.1365V22.0666C27.3901 22.9997 26.802 23.4448 26.2344 23.4448C25.7109 23.4448 25.2208 23.1735 25.2208 22.3487V19.1365C25.2208 19.0936 25.1777 19.0497 25.1336 19.0497H23.8917C23.8486 19.0497 23.8044 19.0926 23.8044 19.1365V22.7927Z" fill="white"/>
<path d="M29.875 24.4755H31.118C31.1611 24.4755 31.2052 24.4326 31.2052 24.3886V16.9657C31.2052 16.9228 31.1621 16.8789 31.118 16.8789H29.875C29.8319 16.8789 29.7878 16.9228 29.7878 16.9657V24.3886C29.7878 24.4315 29.8319 24.4755 29.875 24.4755Z" fill="white"/>
<path d="M36.1309 19.8412V19.1354C36.1309 19.0925 36.1739 19.0486 36.2181 19.0486H37.4611C37.5042 19.0486 37.5483 19.0915 37.5483 19.1354V26.5583C37.5483 26.6012 37.5052 26.6452 37.4611 26.6452H36.2181C36.175 26.6452 36.1309 26.6023 36.1309 26.5583V23.8674C36.1309 23.7805 36.0328 23.7483 35.9671 23.8127C35.5201 24.3339 34.8986 24.5945 34.3655 24.5945C33.1667 24.5945 31.9678 23.6507 31.9678 21.7835C31.9678 20.1339 33.0794 18.9295 34.2233 18.9295C34.4958 18.9295 34.8448 19.0164 35.1712 19.277L35.9887 19.9066C36.0544 19.9495 36.1309 19.9173 36.1309 19.8412ZM33.4392 21.7727C33.4392 22.619 34.038 23.3139 34.8232 23.3139C35.4555 23.3139 36.1309 22.6415 36.1309 21.7191C36.1309 20.6884 35.4221 20.1565 34.834 20.1565C34.1361 20.1565 33.4392 20.6766 33.4392 21.7727Z" fill="white"/>
<path d="M39.1392 18.3654C39.6293 18.3654 40.0106 17.9964 40.0106 17.4752C40.0106 16.9765 39.6293 16.6075 39.1392 16.6075C38.6265 16.6075 38.2345 16.9765 38.2345 17.4752C38.2345 17.9739 38.6265 18.3654 39.1392 18.3654ZM38.507 24.4755H39.7499C39.793 24.4755 39.8372 24.4326 39.8372 24.3886V19.1365C39.8372 19.0936 39.7941 19.0497 39.7499 19.0497H38.507C38.4639 19.0497 38.4197 19.0926 38.4197 19.1365V24.3886C38.4197 24.4315 38.4628 24.4755 38.507 24.4755Z" fill="white"/>
<path d="M17.7338 20.6766C17.7338 22.3369 18.8777 23.2593 19.9785 23.2593C20.7745 23.2593 21.592 22.8249 22.0606 21.9358C22.0821 21.8811 22.1478 21.8596 22.1909 21.8929L23.1937 22.5332C23.226 22.5546 23.2486 22.6093 23.226 22.6415C22.5614 23.9982 21.2969 24.6385 20.0324 24.6385C18.1475 24.6385 16.2507 23.2389 16.2507 20.6777C16.2507 18.1166 18.1475 16.7169 20.0324 16.7169C21.2969 16.7169 22.5604 17.3572 23.226 18.7139C23.2476 18.7461 23.226 18.8008 23.1937 18.8223L22.1909 19.4626C22.1478 19.4947 22.0821 19.4733 22.0606 19.4197C21.592 18.5295 20.7745 18.0962 19.9785 18.0962C18.868 18.094 17.7338 19.0271 17.7338 20.6766Z" fill="white"/>
<path d="M23.8044 22.7927C23.8044 24.453 25.2434 25.0504 26.4853 24.2578L27.2479 23.7698C27.3244 23.7151 27.3901 23.759 27.3901 23.8352V24.3886C27.3901 24.4315 27.4332 24.4755 27.4774 24.4755H28.7193C28.7624 24.4755 28.8065 24.4326 28.8065 24.3886V19.1365C28.8065 19.0936 28.7634 19.0497 28.7193 19.0497H27.4774C27.4343 19.0497 27.3901 19.0926 27.3901 19.1365V22.0666C27.3901 22.9997 26.802 23.4448 26.2344 23.4448C25.7109 23.4448 25.2208 23.1735 25.2208 22.3487V19.1365C25.2208 19.0936 25.1777 19.0497 25.1336 19.0497H23.8917C23.8486 19.0497 23.8044 19.0926 23.8044 19.1365V22.7927Z" fill="white"/>
<path d="M29.875 24.4755H31.118C31.1611 24.4755 31.2052 24.4326 31.2052 24.3886V16.9657C31.2052 16.9228 31.1621 16.8789 31.118 16.8789H29.875C29.8319 16.8789 29.7878 16.9228 29.7878 16.9657V24.3886C29.7878 24.4315 29.8319 24.4755 29.875 24.4755Z" fill="white"/>
<path d="M36.1309 19.8412V19.1354C36.1309 19.0925 36.1739 19.0486 36.2181 19.0486H37.4611C37.5042 19.0486 37.5483 19.0915 37.5483 19.1354V26.5583C37.5483 26.6012 37.5052 26.6452 37.4611 26.6452H36.2181C36.175 26.6452 36.1309 26.6023 36.1309 26.5583V23.8674C36.1309 23.7805 36.0328 23.7483 35.9671 23.8127C35.5201 24.3339 34.8986 24.5945 34.3655 24.5945C33.1667 24.5945 31.9678 23.6507 31.9678 21.7835C31.9678 20.1339 33.0794 18.9295 34.2233 18.9295C34.4958 18.9295 34.8448 19.0164 35.1712 19.277L35.9887 19.9066C36.0544 19.9495 36.1309 19.9173 36.1309 19.8412ZM33.4392 21.7727C33.4392 22.619 34.038 23.3139 34.8232 23.3139C35.4555 23.3139 36.1309 22.6415 36.1309 21.7191C36.1309 20.6884 35.4221 20.1565 34.834 20.1565C34.1361 20.1565 33.4392 20.6766 33.4392 21.7727Z" fill="white"/>
<path d="M39.1392 18.3654C39.6293 18.3654 40.0106 17.9964 40.0106 17.4752C40.0106 16.9765 39.6293 16.6075 39.1392 16.6075C38.6265 16.6075 38.2345 16.9765 38.2345 17.4752C38.2345 17.9739 38.6265 18.3654 39.1392 18.3654ZM38.507 24.4755H39.7499C39.793 24.4755 39.8372 24.4326 39.8372 24.3886V19.1365C39.8372 19.0936 39.7941 19.0497 39.7499 19.0497H38.507C38.4639 19.0497 38.4197 19.0926 38.4197 19.1365V24.3886C38.4197 24.4315 38.4628 24.4755 38.507 24.4755Z" fill="white"/>
<path d="M11.9746 23.3558L8.7497 20.1458L7.74045 21.0842L10.9976 24.3285L13.0387 26.361L14.0157 25.3882L11.9746 23.3558Z" fill="#763383"/>
<path d="M13.3608 19.2759C12.7565 16.9668 10.6583 15.3548 8.25961 15.3548C6.56747 15.3548 4.96689 16.1732 3.9781 17.5428C3.33076 18.4383 2.98932 19.4969 2.98932 20.6026C2.98932 21.9218 3.47725 23.1681 4.36479 24.1366C3.8844 23.5971 3.6162 22.9246 3.6162 22.1953C3.6162 21.4274 3.91025 20.7271 4.39279 20.2004C4.46173 19.5312 4.70084 18.8952 5.0983 18.345C5.82858 17.3336 7.01016 16.7298 8.25961 16.7298C10.0304 16.7298 11.5782 17.9192 12.0241 19.6234C12.107 19.9409 12.149 20.2712 12.149 20.6037C12.149 21.4306 11.8916 22.2189 11.4037 22.8849L11.4435 22.8292L12.4302 23.8116C13.0915 22.9096 13.5299 21.7245 13.5299 20.6037C13.5299 20.1533 13.4728 19.7071 13.3608 19.2759Z" fill="#EB6F25"/>
<path d="M4.50372 24.2846C4.45633 24.2363 4.41002 24.187 4.36478 24.1366C4.41002 24.187 4.45525 24.2363 4.50372 24.2846Z" fill="#00A19B"/>
<path d="M11.4436 22.8281L11.4037 22.8839C11.1614 23.2142 10.8695 23.5038 10.5366 23.744C9.87098 24.2234 9.08361 24.4766 8.25962 24.4766C7.20944 24.4766 6.22497 24.0658 5.48715 23.3204C5.18233 23.019 4.99706 22.6233 4.99706 22.1964C4.99706 21.318 5.71442 20.6037 6.59657 20.6037C7.04034 20.6037 7.45395 20.7807 7.75877 21.1024L8.76156 20.1576C8.20146 19.5677 7.41194 19.2288 6.59657 19.2288C5.72411 19.2288 4.93782 19.6041 4.39281 20.2015C3.91134 20.7292 3.61621 21.4296 3.61621 22.1964C3.61621 22.9257 3.88441 23.5982 4.3648 24.1376C4.41004 24.187 4.45636 24.2374 4.50375 24.2856C5.50223 25.296 6.83676 25.8515 8.25962 25.8515C9.37658 25.8515 10.444 25.5083 11.3455 24.8584C11.7613 24.5581 12.1178 24.217 12.4302 23.8116L11.4436 22.8281Z" fill="#00A19B"/>
</g>
</g>
<defs>
<clipPath id="clip0_214_932">
<rect width="42" height="42" fill="white"/>
</clipPath>
<clipPath id="clip1_214_932">
<rect width="37.0213" height="11.2903" fill="white" transform="translate(2.98932 15.3548)"/>
</clipPath>
</defs>
</svg>
