<svg width="35" height="39" viewBox="0 0 35 39" fill="none" xmlns="http://www.w3.org/2000/svg">
<g clip-path="url(#clip0_2973_22851)">
<path d="M28.1536 25.8026L18.049 15.8516L14.8867 18.7607L25.0925 28.8182L31.488 35.1187L34.5491 32.1031L28.1536 25.8026Z" fill="#763383"/>
<path d="M32.4973 13.1554C30.6039 5.99715 24.0296 1 16.5136 1C11.2115 1 6.19639 3.53681 3.09819 7.78256C1.06986 10.5588 0 13.8403 0 17.2682C0 21.3577 1.52885 25.221 4.3098 28.2233C2.80457 26.551 1.96421 24.4663 1.96421 22.2055C1.96421 19.8249 2.88557 17.6538 4.39754 16.0214C4.61354 13.9467 5.36278 11.9751 6.60813 10.2695C8.89634 7.13423 12.5986 5.26237 16.5136 5.26237C22.062 5.26237 26.9118 8.94956 28.309 14.2326C28.5688 15.2168 28.7005 16.2408 28.7005 17.2715C28.7005 19.8349 27.8939 22.2786 26.365 24.3433L26.4899 24.1704L29.5813 27.2159C31.6535 24.4198 33.0271 20.7459 33.0271 17.2715C33.0271 15.8751 32.8483 14.492 32.4973 13.1554Z" fill="#EB6F25"/>
<path d="M4.74494 28.6825C4.59644 28.5328 4.45132 28.3799 4.30957 28.2236C4.45132 28.3799 4.59307 28.5328 4.74494 28.6825Z" fill="#00A19B"/>
<path d="M26.49 24.1668L26.3652 24.3397C25.6058 25.3637 24.6912 26.2614 23.6483 27.0061C21.5626 28.4923 19.0955 29.277 16.5137 29.277C13.2231 29.277 10.1385 28.0036 7.82662 25.6928C6.87152 24.7586 6.29103 23.5317 6.29103 22.2085C6.29103 19.4855 8.53874 17.2712 11.3028 17.2712C12.6933 17.2712 13.9893 17.8198 14.9444 18.8172L18.0864 15.8881C16.3315 14.0594 13.8576 13.0088 11.3028 13.0088C8.56911 13.0088 6.1054 14.1725 4.39769 16.0244C2.88909 17.6602 1.96436 19.8312 1.96436 22.2085C1.96436 24.4693 2.80472 26.554 4.30994 28.2263C4.45168 28.3793 4.59681 28.5355 4.7453 28.6851C7.87387 31.8171 12.0554 33.5393 16.5137 33.5393C20.0135 33.5393 23.3581 32.4754 26.1829 30.4606C27.4856 29.5296 28.6027 28.4724 29.5815 27.2156L26.49 24.1668Z" fill="#00A19B"/>
</g>
<defs>
<clipPath id="clip0_2973_22851">
<rect width="35" height="34.1189" fill="white" transform="translate(0 1)"/>
</clipPath>
</defs>
</svg>
