<svg width="39" height="12" viewBox="0 0 39 12" fill="none" xmlns="http://www.w3.org/2000/svg">
<g clip-path="url(#clip0_478_639)">
<path d="M15.7339 5.67663C15.7339 7.33688 16.8778 8.25924 17.9786 8.25924C18.7746 8.25924 19.5921 7.82487 20.0607 6.93576C20.0822 6.88106 20.1479 6.85961 20.191 6.89286L21.1938 7.53315C21.2261 7.5546 21.2487 7.60929 21.2261 7.64147C20.5615 8.9982 19.297 9.63849 18.0325 9.63849C16.1475 9.63849 14.2507 8.23886 14.2507 5.6777C14.2507 3.11655 16.1475 1.71692 18.0325 1.71692C19.297 1.71692 20.5604 2.35721 21.2261 3.71393C21.2476 3.74611 21.2261 3.80081 21.1938 3.82226L20.191 4.46255C20.1479 4.49472 20.0822 4.47327 20.0607 4.41965C19.5921 3.52946 18.7746 3.09617 17.9786 3.09617C16.8681 3.09402 15.7339 4.02711 15.7339 5.67663Z" fill="black"/>
<path d="M21.8044 7.79275C21.8044 9.45299 23.2435 10.0504 24.4854 9.2578L25.248 8.7698C25.3244 8.71511 25.3901 8.75908 25.3901 8.83523V9.38864C25.3901 9.43154 25.4332 9.47552 25.4774 9.47552H26.7193C26.7624 9.47552 26.8065 9.43262 26.8065 9.38864V4.13656C26.8065 4.09366 26.7634 4.04968 26.7193 4.04968H25.4774C25.4343 4.04968 25.3901 4.09258 25.3901 4.13656V7.06666C25.3901 7.99974 24.802 8.44483 24.2344 8.44483C23.7109 8.44483 23.2208 8.17349 23.2208 7.34873V4.13656C23.2208 4.09366 23.1778 4.04968 23.1336 4.04968H21.8917C21.8486 4.04968 21.8044 4.09258 21.8044 4.13656V7.79275Z" fill="black"/>
<path d="M27.8751 9.4755H29.1181C29.1611 9.4755 29.2053 9.4326 29.2053 9.38863V1.96578C29.2053 1.92288 29.1622 1.87891 29.1181 1.87891H27.8751C27.832 1.87891 27.7878 1.92288 27.7878 1.96578V9.38863C27.7878 9.43153 27.832 9.4755 27.8751 9.4755Z" fill="black"/>
<path d="M34.1308 4.8412V4.13549C34.1308 4.09259 34.1739 4.04861 34.218 4.04861H35.461C35.5041 4.04861 35.5483 4.09151 35.5483 4.13549V11.5583C35.5483 11.6012 35.5052 11.6452 35.461 11.6452H34.218C34.175 11.6452 34.1308 11.6023 34.1308 11.5583V8.86741C34.1308 8.78053 34.0328 8.74836 33.9671 8.81271C33.5201 9.33395 32.8986 9.59457 32.3654 9.59457C31.1666 9.59457 29.9678 8.65076 29.9678 6.78352C29.9678 5.13399 31.0793 3.92957 32.2232 3.92957C32.4957 3.92957 32.8447 4.01644 33.1711 4.27706L33.9886 4.90662C34.0543 4.94952 34.1308 4.91735 34.1308 4.8412ZM31.4391 6.77279C31.4391 7.619 32.038 8.31399 32.8232 8.31399C33.4554 8.31399 34.1308 7.64153 34.1308 6.71917C34.1308 5.68848 33.4221 5.15652 32.834 5.15652C32.136 5.15652 31.4391 5.67669 31.4391 6.77279Z" fill="black"/>
<path d="M37.1394 3.36539C37.6295 3.36539 38.0108 2.99645 38.0108 2.47521C38.0108 1.97649 37.6295 1.60754 37.1394 1.60754C36.6267 1.60754 36.2346 1.97649 36.2346 2.47521C36.2346 2.97392 36.6267 3.36539 37.1394 3.36539ZM36.5071 9.47549H37.7501C37.7932 9.47549 37.8374 9.43259 37.8374 9.38861V4.13652C37.8374 4.09362 37.7943 4.04965 37.7501 4.04965H36.5071C36.464 4.04965 36.4199 4.09255 36.4199 4.13652V9.38861C36.4199 9.43151 36.463 9.47549 36.5071 9.47549Z" fill="black"/>
<path d="M15.7339 5.67663C15.7339 7.33688 16.8778 8.25924 17.9786 8.25924C18.7746 8.25924 19.5921 7.82487 20.0607 6.93576C20.0822 6.88106 20.1479 6.85961 20.191 6.89286L21.1938 7.53315C21.2261 7.5546 21.2487 7.60929 21.2261 7.64147C20.5615 8.9982 19.297 9.63849 18.0325 9.63849C16.1475 9.63849 14.2507 8.23886 14.2507 5.6777C14.2507 3.11655 16.1475 1.71692 18.0325 1.71692C19.297 1.71692 20.5604 2.35721 21.2261 3.71393C21.2476 3.74611 21.2261 3.80081 21.1938 3.82226L20.191 4.46255C20.1479 4.49472 20.0822 4.47327 20.0607 4.41965C19.5921 3.52946 18.7746 3.09617 17.9786 3.09617C16.8681 3.09402 15.7339 4.02711 15.7339 5.67663Z" fill="black"/>
<path d="M21.8044 7.79275C21.8044 9.45299 23.2435 10.0504 24.4854 9.2578L25.248 8.7698C25.3244 8.71511 25.3901 8.75908 25.3901 8.83523V9.38864C25.3901 9.43154 25.4332 9.47552 25.4774 9.47552H26.7193C26.7624 9.47552 26.8065 9.43262 26.8065 9.38864V4.13656C26.8065 4.09366 26.7634 4.04968 26.7193 4.04968H25.4774C25.4343 4.04968 25.3901 4.09258 25.3901 4.13656V7.06666C25.3901 7.99974 24.802 8.44483 24.2344 8.44483C23.7109 8.44483 23.2208 8.17349 23.2208 7.34873V4.13656C23.2208 4.09366 23.1778 4.04968 23.1336 4.04968H21.8917C21.8486 4.04968 21.8044 4.09258 21.8044 4.13656V7.79275Z" fill="black"/>
<path d="M27.8751 9.4755H29.1181C29.1611 9.4755 29.2053 9.4326 29.2053 9.38863V1.96578C29.2053 1.92288 29.1622 1.87891 29.1181 1.87891H27.8751C27.832 1.87891 27.7878 1.92288 27.7878 1.96578V9.38863C27.7878 9.43153 27.832 9.4755 27.8751 9.4755Z" fill="black"/>
<path d="M34.1308 4.8412V4.13549C34.1308 4.09259 34.1739 4.04861 34.218 4.04861H35.461C35.5041 4.04861 35.5483 4.09151 35.5483 4.13549V11.5583C35.5483 11.6012 35.5052 11.6452 35.461 11.6452H34.218C34.175 11.6452 34.1308 11.6023 34.1308 11.5583V8.86741C34.1308 8.78053 34.0328 8.74836 33.9671 8.81271C33.5201 9.33395 32.8986 9.59457 32.3654 9.59457C31.1666 9.59457 29.9678 8.65076 29.9678 6.78352C29.9678 5.13399 31.0793 3.92957 32.2232 3.92957C32.4957 3.92957 32.8447 4.01644 33.1711 4.27706L33.9886 4.90662C34.0543 4.94952 34.1308 4.91735 34.1308 4.8412ZM31.4391 6.77279C31.4391 7.619 32.038 8.31399 32.8232 8.31399C33.4554 8.31399 34.1308 7.64153 34.1308 6.71917C34.1308 5.68848 33.4221 5.15652 32.834 5.15652C32.136 5.15652 31.4391 5.67669 31.4391 6.77279Z" fill="black"/>
<path d="M37.1394 3.36539C37.6295 3.36539 38.0108 2.99645 38.0108 2.47521C38.0108 1.97649 37.6295 1.60754 37.1394 1.60754C36.6267 1.60754 36.2346 1.97649 36.2346 2.47521C36.2346 2.97392 36.6267 3.36539 37.1394 3.36539ZM36.5071 9.47549H37.7501C37.7932 9.47549 37.8374 9.43259 37.8374 9.38861V4.13652C37.8374 4.09362 37.7943 4.04965 37.7501 4.04965H36.5071C36.464 4.04965 36.4199 4.09255 36.4199 4.13652V9.38861C36.4199 9.43151 36.463 9.47549 36.5071 9.47549Z" fill="black"/>
<path d="M9.97459 8.35578L6.74973 5.14575L5.74048 6.0842L8.99765 9.32855L11.0388 11.361L12.0157 10.3882L9.97459 8.35578Z" fill="#763383"/>
<path d="M11.3607 4.27596C10.7565 1.96684 8.65827 0.354858 6.25955 0.354858C4.56741 0.354858 2.96683 1.17318 1.97804 2.54278C1.3307 3.43833 0.989258 4.4969 0.989258 5.60265C0.989258 6.92184 1.47719 8.1681 2.36472 9.13658C1.88433 8.59711 1.61613 7.92464 1.61613 7.19533C1.61613 6.42742 1.91019 5.72707 2.39273 5.20046C2.46166 4.53122 2.70078 3.89522 3.09824 3.34502C3.82851 2.33364 5.0101 1.72982 6.25955 1.72982C8.03031 1.72982 9.57812 2.91923 10.024 4.62345C10.107 4.94092 10.149 5.27125 10.149 5.60373C10.149 6.43063 9.89156 7.21893 9.40363 7.88496L9.44348 7.82919L10.4301 8.81161C11.0915 7.90963 11.5298 6.7245 11.5298 5.60373C11.5298 5.15327 11.4728 4.70711 11.3607 4.27596Z" fill="#EB6F25"/>
<path d="M2.50369 9.2846C2.4563 9.23634 2.40998 9.187 2.36475 9.1366C2.40998 9.187 2.45522 9.23634 2.50369 9.2846Z" fill="#00A19B"/>
<path d="M9.44355 7.8281L9.4037 7.88388C9.16135 8.21421 8.86946 8.50379 8.53663 8.74403C7.87098 9.22344 7.08361 9.47655 6.25962 9.47655C5.20944 9.47655 4.22497 9.06578 3.48715 8.32039C3.18233 8.01901 2.99706 7.62326 2.99706 7.1964C2.99706 6.31801 3.71442 5.60372 4.59657 5.60372C5.04034 5.60372 5.45395 5.78068 5.75877 6.10244L6.76156 5.15755C6.20146 4.56767 5.41194 4.22876 4.59657 4.22876C3.72411 4.22876 2.93782 4.60414 2.39281 5.20153C1.91134 5.7292 1.61621 6.42955 1.61621 7.1964C1.61621 7.9257 1.88441 8.59817 2.3648 9.13764C2.41004 9.18698 2.45636 9.23738 2.50375 9.28565C3.50223 10.296 4.83676 10.8515 6.25962 10.8515C7.37658 10.8515 8.444 10.5083 9.34554 9.85837C9.7613 9.55806 10.1178 9.21701 10.4302 8.8116L9.44355 7.8281Z" fill="#00A19B"/>
</g>
<defs>
<clipPath id="clip0_478_639">
<rect width="37.0213" height="11.2903" fill="white" transform="translate(0.989258 0.354858)"/>
</clipPath>
</defs>
</svg>
