<svg width="20" height="22" viewBox="0 0 20 22" fill="none" xmlns="http://www.w3.org/2000/svg">
<path d="M18.1129 3.30407H17.5946V11.6509H18.1129V3.30407Z" fill="#677487"/>
<path fill-rule="evenodd" clip-rule="evenodd" d="M17.4271 3.12663H18.2804V11.8284H17.4271V3.12663ZM17.7622 3.48151V11.4735H17.9454V3.48151H17.7622Z" fill="#677487"/>
<path d="M18.1172 3.02962H2.16754V3.57851H18.1172V3.02962Z" fill="#677487"/>
<path fill-rule="evenodd" clip-rule="evenodd" d="M2 2.85218H18.2848V3.75595H2V2.85218ZM2.33508 3.20707V3.40107H17.9497V3.20707H2.33508Z" fill="#677487"/>
<path d="M2.68579 3.02962H2.16754V17.5609H2.68579V3.02962Z" fill="#677487"/>
<path fill-rule="evenodd" clip-rule="evenodd" d="M2 2.85218H2.85333V17.7384H2V2.85218ZM2.33508 3.20707V17.3835H2.51825V3.20707H2.33508Z" fill="#677487"/>
<path d="M10.5579 17.0073H2.4267V17.5562H10.5579V17.0073Z" fill="#677487"/>
<path fill-rule="evenodd" clip-rule="evenodd" d="M2.25916 16.8299H10.7255V17.7336H2.25916V16.8299ZM2.59424 17.1848V17.3788H10.3904V17.1848H2.59424Z" fill="#677487"/>
<path d="M5.59437 9.13363H3.95026V7.39233H5.59437V9.13363ZM4.41937 8.64152H5.12526V7.8939H4.41937V8.64152Z" fill="#677487"/>
<path d="M5.59437 12.2519H3.95026V10.5106H5.59437V12.2519ZM4.41937 11.755H5.12526V11.0074H4.41937V11.755Z" fill="#677487"/>
<path d="M5.59437 15.389H3.95026V13.6477H5.59437V15.389ZM4.41937 14.8969H5.12526V14.1446H4.41937V14.8969Z" fill="#677487"/>
<path d="M16.3793 9.13363H14.7351V7.39233H16.3793V9.13363ZM15.2042 8.64152H15.9101V7.8939H15.2042V8.64152Z" fill="#677487"/>
<path d="M12.7828 9.13363H11.1387V7.39233H12.7828V9.13363ZM11.6078 8.64152H12.3137V7.8939H11.6078V8.64152Z" fill="#677487"/>
<path d="M9.19079 9.13363H7.54667V7.39233H9.19079V9.13363ZM8.01131 8.64152H8.71721V7.8939H8.01131V8.64152Z" fill="#677487"/>
<path d="M9.19079 12.2519H7.54667V10.5106H9.19079V12.2519ZM8.01131 11.755H8.71721V11.0074H8.01131V11.755Z" fill="#677487"/>
<path d="M9.19079 15.2566H7.54667V13.5153H9.19079V15.2566ZM8.01131 14.7645H8.71721V14.0168H8.01131V14.7645Z" fill="#677487"/>
<path d="M17.4381 5.53274H3.01636V5.9728H17.4381V5.53274Z" fill="#677487"/>
<path fill-rule="evenodd" clip-rule="evenodd" d="M2.84882 5.3553H17.6057V6.15024H2.84882V5.3553ZM3.1839 5.71018V5.79535H17.2706V5.71018H3.1839Z" fill="#677487"/>
<path d="M14.1053 19.4016C11.5006 19.4016 9.37848 17.1587 9.37848 14.3954C9.37848 11.632 11.4962 9.38914 14.1053 9.38914V9.95696C11.7955 9.95696 9.9146 11.949 9.9146 14.3954C9.9146 16.8417 11.7955 18.8338 14.1053 18.8338V19.4016Z" fill="#677487"/>
<path fill-rule="evenodd" clip-rule="evenodd" d="M13.9378 9.56979C11.4987 9.66327 9.54601 11.7894 9.54601 14.3954C9.54601 17.0011 11.5027 19.1273 13.9378 19.2209V19.0079C11.6127 18.9142 9.74706 16.8803 9.74706 14.3954C9.74706 11.9105 11.6127 9.87652 13.9378 9.78288V9.56979ZM9.21094 14.3954C9.21094 11.534 11.4036 9.2117 14.1053 9.2117H14.2728V10.1344H14.1053C11.888 10.1344 10.0821 12.047 10.0821 14.3954C10.0821 16.7437 11.888 18.6563 14.1053 18.6563H14.2728V19.579H14.1053C11.4082 19.579 9.21094 17.2568 9.21094 14.3954Z" fill="#677487"/>
<path d="M14.1053 19.4016V18.8338C16.4151 18.8338 18.296 16.8417 18.296 14.3954H18.8322C18.8277 17.1587 16.71 19.4016 14.1053 19.4016Z" fill="#677487"/>
<path fill-rule="evenodd" clip-rule="evenodd" d="M18.1285 14.2179H19L18.9997 14.3957C18.9951 17.2566 16.8027 19.579 14.1053 19.579L13.9378 19.5791V18.6564L14.1053 18.6563C16.3226 18.6563 18.1285 16.7437 18.1285 14.3954V14.2179ZM18.4604 14.5728C18.3741 16.9764 16.5424 18.9165 14.2729 19.0079V19.221C16.652 19.1295 18.571 17.0973 18.6613 14.5728H18.4604Z" fill="#677487"/>
<path d="M18.8276 14.4001H18.2915C18.2915 11.9538 16.4106 9.96169 14.1008 9.96169V9.39388C16.7099 9.39388 18.8276 11.6415 18.8276 14.4001Z" fill="#677487"/>
<path fill-rule="evenodd" clip-rule="evenodd" d="M13.9332 9.21644H14.1008C16.8025 9.21644 18.9951 11.5436 18.9951 14.4001V14.5775H18.1239V14.4001C18.1239 12.0518 16.318 10.1391 14.1008 10.1391H13.9332V9.21644ZM14.2683 9.57453V9.78762C16.5378 9.87901 18.3695 11.819 18.4558 14.2227H18.657C18.5706 11.7024 16.6516 9.66607 14.2683 9.57453Z" fill="#677487"/>
<path d="M14.15 11.561H13.6317V14.4663H14.15V11.561Z" fill="#677487"/>
<path fill-rule="evenodd" clip-rule="evenodd" d="M13.4642 11.3836H14.3175V14.6438H13.4642V11.3836ZM13.7993 11.7385V14.2889H13.9825V11.7385H13.7993Z" fill="#677487"/>
<path d="M13.8464 14.0125L13.6544 14.5223L15.6338 15.3586L15.8258 14.8487L13.8464 14.0125Z" fill="#677487"/>
<path fill-rule="evenodd" clip-rule="evenodd" d="M13.4367 14.6214L13.7529 13.7819L16.0435 14.7497L15.7273 15.5891L13.4367 14.6214ZM13.8721 14.4232L15.5402 15.128L15.6081 14.9478L13.9399 14.243L13.8721 14.4232Z" fill="#677487"/>
<path d="M6.04552 2.35298H5.52726V4.15106H6.04552V2.35298Z" fill="#677487"/>
<path fill-rule="evenodd" clip-rule="evenodd" d="M5.35972 2.17554H6.21305V4.3285H5.35972V2.17554ZM5.6948 2.53042V3.97362H5.87798V2.53042H5.6948Z" fill="#677487"/>
<path d="M14.6504 2.35298H14.1322V4.15106H14.6504V2.35298Z" fill="#677487"/>
<path fill-rule="evenodd" clip-rule="evenodd" d="M13.9646 2.17554H14.818V4.3285H13.9646V2.17554ZM14.2997 2.53042V3.97362H14.4829V2.53042H14.2997Z" fill="#677487"/>
</svg>
