<svg width="117" height="59" viewBox="0 0 117 59" fill="none" xmlns="http://www.w3.org/2000/svg">
<g clip-path="url(#clip0_371_12874)">
<path d="M48.7078 32.6754C48.7078 36.909 51.6819 39.261 54.544 39.261C56.6136 39.261 58.7391 38.1534 59.9574 35.8862C60.0134 35.7467 60.1842 35.692 60.2962 35.7768L62.9035 37.4095C62.9875 37.4642 63.0463 37.6037 62.9875 37.6857C61.2596 41.1454 57.9718 42.7781 54.684 42.7781C49.7832 42.7781 44.8516 39.2091 44.8516 32.6781C44.8516 26.1472 49.7832 22.5781 54.684 22.5781C57.9718 22.5781 61.2568 24.2109 62.9875 27.6705C63.0435 27.7526 62.9875 27.892 62.9035 27.9467L60.2962 29.5795C60.1842 29.6615 60.0134 29.6068 59.9574 29.4701C58.7391 27.2001 56.6136 26.0952 54.544 26.0952C51.6567 26.0897 48.7078 28.4691 48.7078 32.6754Z" fill="black"/>
<path d="M64.4912 38.0712C64.4912 42.3048 68.2327 43.8282 71.4616 41.8071L73.4443 40.5627C73.6432 40.4232 73.814 40.5353 73.814 40.7295V42.1407C73.814 42.2501 73.926 42.3622 74.0408 42.3622H77.2698C77.3818 42.3622 77.4966 42.2528 77.4966 42.1407V28.7479C77.4966 28.6385 77.3846 28.5264 77.2698 28.5264H74.0408C73.9288 28.5264 73.814 28.6358 73.814 28.7479V36.2196C73.814 38.599 72.2849 39.734 70.8091 39.734C69.4481 39.734 68.1738 39.0421 68.1738 36.9389V28.7479C68.1738 28.6385 68.0618 28.5264 67.947 28.5264H64.718C64.606 28.5264 64.4912 28.6358 64.4912 28.7479V38.0712Z" fill="black"/>
<path d="M80.2749 42.3623H83.5067C83.6187 42.3623 83.7335 42.2529 83.7335 42.1408V23.2125C83.7335 23.1031 83.6215 22.991 83.5067 22.991H80.2749C80.1629 22.991 80.0481 23.1031 80.0481 23.2125V42.1408C80.0481 42.2502 80.1629 42.3623 80.2749 42.3623Z" fill="black"/>
<path d="M96.5399 30.5449V28.7453C96.5399 28.6359 96.6519 28.5238 96.7668 28.5238H99.9985C100.111 28.5238 100.225 28.6332 100.225 28.7453V47.6736C100.225 47.783 100.113 47.8951 99.9985 47.8951H96.7668C96.6547 47.8951 96.5399 47.7857 96.5399 47.6736V40.8117C96.5399 40.5902 96.2851 40.5081 96.1142 40.6722C94.952 42.0014 93.3362 42.666 91.9499 42.666C88.833 42.666 85.7161 40.2593 85.7161 35.4978C85.7161 31.2915 88.6062 28.2202 91.5803 28.2202C92.2888 28.2202 93.1961 28.4417 94.0447 29.1063L96.1703 30.7117C96.3411 30.8211 96.5399 30.7391 96.5399 30.5449ZM89.5415 35.4704C89.5415 37.6283 91.0986 39.4005 93.1401 39.4005C94.784 39.4005 96.5399 37.6857 96.5399 35.3337C96.5399 32.7055 94.6972 31.3489 93.1681 31.3489C91.3534 31.3489 89.5415 32.6754 89.5415 35.4704Z" fill="black"/>
<path d="M104.362 26.7816C105.636 26.7816 106.627 25.8408 106.627 24.5116C106.627 23.2399 105.636 22.2991 104.362 22.2991C103.029 22.2991 102.009 23.2399 102.009 24.5116C102.009 25.7833 103.029 26.7816 104.362 26.7816ZM102.718 42.3623H105.95C106.062 42.3623 106.176 42.2529 106.176 42.1408V28.748C106.176 28.6386 106.064 28.5264 105.95 28.5264H102.718C102.606 28.5264 102.491 28.6358 102.491 28.748V42.1408C102.491 42.2502 102.603 42.3623 102.718 42.3623Z" fill="black"/>
<path d="M48.7078 32.6754C48.7078 36.909 51.6819 39.261 54.544 39.261C56.6136 39.261 58.7391 38.1534 59.9574 35.8862C60.0134 35.7467 60.1842 35.692 60.2962 35.7768L62.9035 37.4095C62.9875 37.4642 63.0463 37.6037 62.9875 37.6857C61.2596 41.1454 57.9718 42.7781 54.684 42.7781C49.7832 42.7781 44.8516 39.2091 44.8516 32.6781C44.8516 26.1472 49.7832 22.5781 54.684 22.5781C57.9718 22.5781 61.2568 24.2109 62.9875 27.6705C63.0435 27.7526 62.9875 27.892 62.9035 27.9467L60.2962 29.5795C60.1842 29.6615 60.0134 29.6068 59.9574 29.4701C58.7391 27.2001 56.6136 26.0952 54.544 26.0952C51.6567 26.0897 48.7078 28.4691 48.7078 32.6754Z" fill="black"/>
<path d="M64.4912 38.0712C64.4912 42.3048 68.2327 43.8282 71.4616 41.8071L73.4443 40.5627C73.6432 40.4232 73.814 40.5353 73.814 40.7295V42.1407C73.814 42.2501 73.926 42.3622 74.0408 42.3622H77.2698C77.3818 42.3622 77.4966 42.2528 77.4966 42.1407V28.7479C77.4966 28.6385 77.3846 28.5264 77.2698 28.5264H74.0408C73.9288 28.5264 73.814 28.6358 73.814 28.7479V36.2196C73.814 38.599 72.2849 39.734 70.8091 39.734C69.4481 39.734 68.1738 39.0421 68.1738 36.9389V28.7479C68.1738 28.6385 68.0618 28.5264 67.947 28.5264H64.718C64.606 28.5264 64.4912 28.6358 64.4912 28.7479V38.0712Z" fill="black"/>
<path d="M80.2749 42.3623H83.5067C83.6187 42.3623 83.7335 42.2529 83.7335 42.1408V23.2125C83.7335 23.1031 83.6215 22.991 83.5067 22.991H80.2749C80.1629 22.991 80.0481 23.1031 80.0481 23.2125V42.1408C80.0481 42.2502 80.1629 42.3623 80.2749 42.3623Z" fill="black"/>
<path d="M96.5399 30.5449V28.7453C96.5399 28.6359 96.6519 28.5238 96.7668 28.5238H99.9985C100.111 28.5238 100.225 28.6332 100.225 28.7453V47.6736C100.225 47.783 100.113 47.8951 99.9985 47.8951H96.7668C96.6547 47.8951 96.5399 47.7857 96.5399 47.6736V40.8117C96.5399 40.5902 96.2851 40.5081 96.1142 40.6722C94.952 42.0014 93.3362 42.666 91.9499 42.666C88.833 42.666 85.7161 40.2593 85.7161 35.4978C85.7161 31.2915 88.6062 28.2202 91.5803 28.2202C92.2888 28.2202 93.1961 28.4417 94.0447 29.1063L96.1703 30.7117C96.3411 30.8211 96.5399 30.7391 96.5399 30.5449ZM89.5415 35.4704C89.5415 37.6283 91.0986 39.4005 93.1401 39.4005C94.784 39.4005 96.5399 37.6857 96.5399 35.3337C96.5399 32.7055 94.6972 31.3489 93.1681 31.3489C91.3534 31.3489 89.5415 32.6754 89.5415 35.4704Z" fill="black"/>
<path d="M104.362 26.7816C105.636 26.7816 106.627 25.8408 106.627 24.5116C106.627 23.2399 105.636 22.2991 104.362 22.2991C103.029 22.2991 102.009 23.2399 102.009 24.5116C102.009 25.7833 103.029 26.7816 104.362 26.7816ZM102.718 42.3623H105.95C106.062 42.3623 106.176 42.2529 106.176 42.1408V28.748C106.176 28.6386 106.064 28.5264 105.95 28.5264H102.718C102.606 28.5264 102.491 28.6358 102.491 28.748V42.1408C102.491 42.2502 102.603 42.3623 102.718 42.3623Z" fill="black"/>
<path d="M33.7338 39.5071L25.3491 31.3215L22.7251 33.7146L31.1938 41.9877L36.5007 47.1703L39.0407 44.6897L33.7338 39.5071Z" fill="#763383"/>
<path d="M37.3379 29.1035C35.7668 23.2153 30.3115 19.1047 24.0748 19.1047C19.6753 19.1047 15.5138 21.1915 12.9429 24.6839C11.2598 26.9676 10.3721 29.6669 10.3721 32.4866C10.3721 35.8505 11.6407 39.0285 13.9483 41.4981C12.6993 40.1225 12.002 38.4077 12.002 36.5479C12.002 34.5898 12.7665 32.8039 14.0211 31.461C14.2003 29.7544 14.822 28.1327 15.8554 26.7296C17.7541 24.1506 20.8263 22.6109 24.0748 22.6109C28.6788 22.6109 32.7031 25.6439 33.8625 29.9897C34.0781 30.7992 34.1874 31.6415 34.1874 32.4894C34.1874 34.598 33.518 36.6081 32.2494 38.3065L32.353 38.1643L34.9183 40.6694C36.6378 38.3694 37.7776 35.3473 37.7776 32.4894C37.7776 31.3407 37.6292 30.203 37.3379 29.1035Z" fill="#EB6F25"/>
<path d="M14.3095 41.8755C14.1863 41.7524 14.0659 41.6266 13.9482 41.498C14.0659 41.6266 14.1835 41.7524 14.3095 41.8755Z" fill="#00A19B"/>
<path d="M32.353 38.1615L32.2494 38.3037C31.6193 39.1461 30.8604 39.8845 29.995 40.4971C28.2643 41.7196 26.2172 42.365 24.0748 42.365C21.3444 42.365 18.7847 41.3176 16.8664 39.4168C16.0739 38.6483 15.5922 37.6391 15.5922 36.5506C15.5922 34.3107 17.4573 32.4893 19.7509 32.4893C20.9047 32.4893 21.9801 32.9406 22.7726 33.761L25.3799 31.3516C23.9236 29.8474 21.8708 28.9832 19.7509 28.9832C17.4825 28.9832 15.4381 29.9404 14.0211 31.4637C12.7693 32.8093 12.002 34.5952 12.002 36.5506C12.002 38.4104 12.6993 40.1251 13.9483 41.5008C14.0659 41.6266 14.1863 41.7552 14.3095 41.8782C16.9056 44.4545 20.3754 45.8712 24.0748 45.8712C26.9789 45.8712 29.7542 44.996 32.0982 43.3387C33.1792 42.5729 34.1061 41.7032 34.9183 40.6694L32.353 38.1615Z" fill="#00A19B"/>
</g>
<g filter="url(#filter0_ddd_371_12874)">
<rect x="11" y="2" width="66" height="12" rx="6" fill="white"/>
</g>
<path d="M22 10.3912V4.32707H24.976C25.3915 4.32707 25.7368 4.40663 26.0119 4.56575C26.2869 4.71897 26.4918 4.93407 26.6264 5.21105C26.7669 5.48803 26.8371 5.80921 26.8371 6.17459C26.8371 6.54586 26.761 6.87587 26.6088 7.16464C26.4567 7.44751 26.2401 7.66851 25.9592 7.82762C25.6841 7.98674 25.3535 8.0663 24.9672 8.0663H22.834V10.3912H22ZM22.834 7.34144H24.9145C25.2423 7.34144 25.5027 7.23831 25.6958 7.03204C25.8948 6.82578 25.9943 6.54291 25.9943 6.18343C25.9943 5.9418 25.9534 5.73849 25.8714 5.57348C25.7895 5.40847 25.6695 5.28177 25.5115 5.19337C25.3535 5.09908 25.1545 5.05193 24.9145 5.05193H22.834V7.34144Z" fill="#141414"/>
<path d="M29.4994 10.4972C29.0312 10.4972 28.6362 10.4118 28.3143 10.2409C27.9983 10.0641 27.7554 9.79595 27.5857 9.43646C27.4218 9.07698 27.3399 8.62026 27.3399 8.0663C27.3399 7.50645 27.4218 7.04972 27.5857 6.69613C27.7554 6.33665 27.9983 6.07146 28.3143 5.90055C28.6362 5.72376 29.0312 5.63536 29.4994 5.63536C29.9676 5.63536 30.3598 5.72376 30.6758 5.90055C30.9977 6.07146 31.2406 6.33665 31.4044 6.69613C31.5683 7.04972 31.6502 7.50645 31.6502 8.0663C31.6502 8.62026 31.5683 9.07698 31.4044 9.43646C31.2406 9.79595 30.9977 10.0641 30.6758 10.2409C30.3598 10.4118 29.9676 10.4972 29.4994 10.4972ZM29.4994 9.84309C29.7979 9.84309 30.0466 9.78416 30.2456 9.6663C30.4446 9.54843 30.5939 9.36575 30.6933 9.11823C30.7987 8.86483 30.8514 8.54659 30.8514 8.16354V7.96906C30.8514 7.58011 30.7987 7.26188 30.6933 7.01436C30.5939 6.76685 30.4446 6.58416 30.2456 6.4663C30.0466 6.34843 29.7979 6.2895 29.4994 6.2895C29.201 6.2895 28.9493 6.34843 28.7445 6.4663C28.5455 6.58416 28.3962 6.76685 28.2968 7.01436C28.1973 7.26188 28.1475 7.58011 28.1475 7.96906V8.16354C28.1475 8.54659 28.1973 8.86483 28.2968 9.11823C28.3962 9.36575 28.5455 9.54843 28.7445 9.6663C28.9493 9.78416 29.201 9.84309 29.4994 9.84309Z" fill="#141414"/>
<path d="M33.4536 10.3912L32.0578 5.74144H32.8567L33.559 8.29613C33.5941 8.41989 33.6263 8.55543 33.6556 8.70276C33.6907 8.8442 33.7229 8.9768 33.7521 9.10055C33.7872 9.21842 33.8106 9.30976 33.8223 9.37459H33.875C33.8984 9.26262 33.9248 9.13591 33.954 8.99448C33.9891 8.85304 34.0184 8.7175 34.0418 8.58785C34.0711 8.4582 34.0945 8.35801 34.112 8.28729L34.7441 5.74144H35.5781L36.2189 8.28729C36.2424 8.38748 36.2687 8.50534 36.2979 8.64088C36.3272 8.77053 36.3565 8.90018 36.3857 9.02983C36.4209 9.15948 36.4443 9.2744 36.456 9.37459H36.5086C36.532 9.28029 36.5584 9.17127 36.5876 9.04751C36.6169 8.91786 36.6491 8.78821 36.6842 8.65856C36.7193 8.52302 36.7515 8.40516 36.7808 8.30497L37.4743 5.74144H38.2117L36.8247 10.3912H36.0346L35.4376 7.98674C35.4142 7.87477 35.385 7.74512 35.3498 7.59779C35.3147 7.44457 35.2796 7.29134 35.2445 7.13812C35.2152 6.97901 35.1889 6.84052 35.1655 6.72265H35.1128C35.1011 6.81105 35.0806 6.92302 35.0514 7.05856C35.028 7.19411 34.9987 7.34438 34.9636 7.50939C34.9285 7.66851 34.8875 7.82762 34.8407 7.98674L34.2437 10.3912H33.4536Z" fill="#141414"/>
<path d="M40.7117 10.4972C40.2552 10.4972 39.8689 10.4118 39.5529 10.2409C39.2427 10.0641 39.0057 9.79595 38.8418 9.43646C38.6838 9.07698 38.6048 8.62026 38.6048 8.0663C38.6048 7.50645 38.6838 7.04972 38.8418 6.69613C39.0057 6.33665 39.2456 6.07146 39.5616 5.90055C39.8777 5.72376 40.2727 5.63536 40.7468 5.63536C41.1799 5.63536 41.5427 5.72081 41.8353 5.89171C42.128 6.05672 42.3474 6.30718 42.4937 6.64309C42.6459 6.97311 42.722 7.38858 42.722 7.8895V8.26077H39.4036C39.4153 8.63204 39.468 8.93849 39.5616 9.18011C39.6611 9.41584 39.8075 9.58969 40.0006 9.70166C40.1937 9.80773 40.4366 9.86077 40.7292 9.86077C40.9282 9.86077 41.1009 9.8372 41.2472 9.79005C41.3993 9.73702 41.5252 9.66335 41.6247 9.56906C41.73 9.47477 41.809 9.3628 41.8617 9.23315C41.9143 9.1035 41.9436 8.96206 41.9495 8.80884H42.7044C42.6986 9.05635 42.6518 9.28619 42.564 9.49834C42.4762 9.7046 42.3474 9.8814 42.1777 10.0287C42.008 10.1761 41.8002 10.291 41.5544 10.3735C41.3086 10.456 41.0277 10.4972 40.7117 10.4972ZM39.4212 7.67735H41.9231C41.9231 7.41805 41.8939 7.2 41.8353 7.0232C41.7768 6.84641 41.692 6.70203 41.5808 6.59006C41.4754 6.47808 41.3496 6.39853 41.2033 6.35138C41.0628 6.29834 40.9019 6.27182 40.7204 6.27182C40.4512 6.27182 40.223 6.32192 40.0357 6.4221C39.8484 6.52228 39.705 6.67551 39.6055 6.88177C39.5061 7.08803 39.4446 7.35322 39.4212 7.67735Z" fill="#141414"/>
<path d="M43.6776 10.3912V5.74144H44.3009L44.3711 6.5105H44.4325C44.4794 6.36317 44.5437 6.22468 44.6257 6.09503C44.7076 5.95948 44.8188 5.85046 44.9593 5.76796C45.0997 5.67956 45.2724 5.63536 45.4772 5.63536C45.565 5.63536 45.644 5.6442 45.7142 5.66188C45.7903 5.67366 45.8459 5.6884 45.881 5.70608V6.4221H45.5913C45.3923 6.4221 45.2197 6.45746 45.0734 6.52818C44.9329 6.593 44.8159 6.68729 44.7222 6.81105C44.6286 6.93481 44.5584 7.08214 44.5116 7.25304C44.4706 7.42394 44.4501 7.60663 44.4501 7.80111V10.3912H43.6776Z" fill="#141414"/>
<path d="M48.3502 10.4972C47.8937 10.4972 47.5074 10.4118 47.1914 10.2409C46.8812 10.0641 46.6442 9.79595 46.4803 9.43646C46.3223 9.07698 46.2433 8.62026 46.2433 8.0663C46.2433 7.50645 46.3223 7.04972 46.4803 6.69613C46.6442 6.33665 46.8841 6.07146 47.2002 5.90055C47.5162 5.72376 47.9113 5.63536 48.3853 5.63536C48.8184 5.63536 49.1812 5.72081 49.4739 5.89171C49.7665 6.05672 49.986 6.30718 50.1323 6.64309C50.2844 6.97311 50.3605 7.38858 50.3605 7.8895V8.26077H47.0422C47.0539 8.63204 47.1065 8.93849 47.2002 9.18011C47.2997 9.41584 47.446 9.58969 47.6391 9.70166C47.8322 9.80773 48.0751 9.86077 48.3677 9.86077C48.5667 9.86077 48.7394 9.8372 48.8857 9.79005C49.0379 9.73702 49.1637 9.66335 49.2632 9.56906C49.3685 9.47477 49.4475 9.3628 49.5002 9.23315C49.5529 9.1035 49.5821 8.96206 49.588 8.80884H50.343C50.3371 9.05635 50.2903 9.28619 50.2025 9.49834C50.1147 9.7046 49.986 9.8814 49.8162 10.0287C49.6465 10.1761 49.4388 10.291 49.1929 10.3735C48.9471 10.456 48.6662 10.4972 48.3502 10.4972ZM47.0597 7.67735H49.5617C49.5617 7.41805 49.5324 7.2 49.4739 7.0232C49.4153 6.84641 49.3305 6.70203 49.2193 6.59006C49.1139 6.47808 48.9881 6.39853 48.8418 6.35138C48.7013 6.29834 48.5404 6.27182 48.359 6.27182C48.0898 6.27182 47.8615 6.32192 47.6742 6.4221C47.4869 6.52228 47.3436 6.67551 47.2441 6.88177C47.1446 7.08803 47.0831 7.35322 47.0597 7.67735Z" fill="#141414"/>
<path d="M52.8875 10.4972C52.5071 10.4972 52.1793 10.4118 51.9043 10.2409C51.6351 10.07 51.4244 9.80479 51.2722 9.4453C51.1259 9.07993 51.0527 8.60847 51.0527 8.03094C51.0527 7.48287 51.1288 7.03204 51.281 6.67845C51.4331 6.32486 51.6438 6.06262 51.913 5.89171C52.1823 5.72081 52.4954 5.63536 52.8524 5.63536C53.0572 5.63536 53.2474 5.65893 53.423 5.70608C53.5986 5.75322 53.7537 5.82689 53.8883 5.92707C54.0287 6.02726 54.1516 6.15985 54.257 6.32486H54.3096V4H55.0822V10.3912H54.4589L54.3887 9.72818H54.3272C54.1692 9.98748 53.9643 10.182 53.7127 10.3116C53.461 10.4354 53.186 10.4972 52.8875 10.4972ZM53.0718 9.81657C53.3645 9.81657 53.6015 9.75175 53.7829 9.6221C53.9643 9.49245 54.096 9.30387 54.178 9.05635C54.2658 8.80884 54.3096 8.50239 54.3096 8.13702V7.99558C54.3096 7.67735 54.2775 7.40921 54.2131 7.19116C54.1487 6.97311 54.0609 6.79926 53.9497 6.66961C53.8385 6.53996 53.7098 6.44862 53.5635 6.39558C53.4171 6.34254 53.2621 6.31602 53.0982 6.31602C52.8114 6.31602 52.5773 6.37495 52.3959 6.49282C52.2145 6.60479 52.0798 6.78453 51.9921 7.03204C51.9043 7.27366 51.8604 7.58895 51.8604 7.9779V8.16354C51.8604 8.56427 51.9072 8.8884 52.0008 9.13591C52.0945 9.37753 52.2291 9.55138 52.4047 9.65746C52.5861 9.76354 52.8085 9.81657 53.0718 9.81657Z" fill="#141414"/>
<path d="M60.3263 10.4972C60.0161 10.4972 59.7381 10.4354 59.4923 10.3116C59.2465 10.182 59.0446 9.98748 58.8866 9.72818H58.8251L58.7461 10.3912H58.1316V4H58.9041V6.32486H58.9568C59.0622 6.15985 59.1851 6.02726 59.3255 5.92707C59.466 5.82689 59.624 5.75322 59.7996 5.70608C59.9752 5.65893 60.1624 5.63536 60.3614 5.63536C60.7184 5.63536 61.0315 5.72081 61.3007 5.89171C61.57 6.06262 61.7777 6.32486 61.924 6.67845C62.0762 7.03204 62.1523 7.48287 62.1523 8.03094C62.1523 8.60847 62.0791 9.07993 61.9328 9.4453C61.7865 9.80479 61.5787 10.07 61.3095 10.2409C61.0403 10.4118 60.7126 10.4972 60.3263 10.4972ZM60.1419 9.81657C60.4053 9.81657 60.6248 9.76354 60.8004 9.65746C60.9818 9.55138 61.1193 9.37753 61.213 9.13591C61.3066 8.8884 61.3534 8.56427 61.3534 8.16354V7.9779C61.3534 7.58895 61.3095 7.27366 61.2217 7.03204C61.1339 6.78453 60.9993 6.60479 60.8179 6.49282C60.6365 6.37495 60.4024 6.31602 60.1156 6.31602C59.9517 6.31602 59.7967 6.34254 59.6503 6.39558C59.504 6.44862 59.3723 6.53996 59.2553 6.66961C59.1441 6.79926 59.0563 6.97311 58.9919 7.19116C58.9334 7.40921 58.9041 7.67735 58.9041 7.99558V8.13702C58.9041 8.50239 58.9451 8.80884 59.0271 9.05635C59.1148 9.30387 59.2494 9.49245 59.4309 9.6221C59.6181 9.75175 59.8552 9.81657 60.1419 9.81657Z" fill="#141414"/>
<path d="M63.4904 12C63.35 12 63.2271 11.9882 63.1217 11.9646C63.0222 11.947 62.9549 11.9352 62.9198 11.9293V11.3635H63.3061C63.4465 11.3635 63.5841 11.3341 63.7187 11.2751C63.8533 11.2162 63.9791 11.116 64.0961 10.9746C64.2132 10.8331 64.3127 10.6387 64.3946 10.3912L62.6038 5.74144H63.4114L64.3332 8.13702C64.3741 8.24899 64.421 8.38748 64.4736 8.55249C64.5322 8.7116 64.5878 8.87661 64.6404 9.04751C64.699 9.21842 64.7458 9.36869 64.7809 9.49834H64.8336C64.857 9.40405 64.8862 9.29797 64.9213 9.18011C64.9565 9.06225 64.9916 8.94144 65.0267 8.81768C65.0677 8.68803 65.1057 8.56722 65.1408 8.45525C65.1818 8.33738 65.214 8.23425 65.2374 8.14586L66.0187 5.74144H66.8L65.2374 10.2586C65.1496 10.512 65.053 10.7448 64.9477 10.9569C64.8423 11.175 64.7253 11.3606 64.5965 11.5138C64.4678 11.667 64.3127 11.7849 64.1313 11.8674C63.9498 11.9558 63.7362 12 63.4904 12Z" fill="#141414"/>
<defs>
<filter id="filter0_ddd_371_12874" x="8" y="0" width="72" height="18" filterUnits="userSpaceOnUse" color-interpolation-filters="sRGB">
<feFlood flood-opacity="0" result="BackgroundImageFix"/>
<feColorMatrix in="SourceAlpha" type="matrix" values="0 0 0 0 0 0 0 0 0 0 0 0 0 0 0 0 0 0 127 0" result="hardAlpha"/>
<feOffset dy="1"/>
<feGaussianBlur stdDeviation="1.5"/>
<feColorMatrix type="matrix" values="0 0 0 0 0.737255 0 0 0 0 0.776471 0 0 0 0 0.831373 0 0 0 0.2 0"/>
<feBlend mode="normal" in2="BackgroundImageFix" result="effect1_dropShadow_371_12874"/>
<feColorMatrix in="SourceAlpha" type="matrix" values="0 0 0 0 0 0 0 0 0 0 0 0 0 0 0 0 0 0 127 0" result="hardAlpha"/>
<feOffset dy="2"/>
<feGaussianBlur stdDeviation="1"/>
<feColorMatrix type="matrix" values="0 0 0 0 0.737255 0 0 0 0 0.776471 0 0 0 0 0.831373 0 0 0 0.12 0"/>
<feBlend mode="normal" in2="effect1_dropShadow_371_12874" result="effect2_dropShadow_371_12874"/>
<feColorMatrix in="SourceAlpha" type="matrix" values="0 0 0 0 0 0 0 0 0 0 0 0 0 0 0 0 0 0 127 0" result="hardAlpha"/>
<feOffset/>
<feGaussianBlur stdDeviation="1"/>
<feColorMatrix type="matrix" values="0 0 0 0 0.737255 0 0 0 0 0.776471 0 0 0 0 0.831373 0 0 0 0.14 0"/>
<feBlend mode="normal" in2="effect2_dropShadow_371_12874" result="effect3_dropShadow_371_12874"/>
<feBlend mode="normal" in="SourceGraphic" in2="effect3_dropShadow_371_12874" result="shape"/>
</filter>
<clipPath id="clip0_371_12874">
<rect width="96.2553" height="28.7903" fill="white" transform="translate(10.3721 19.1047)"/>
</clipPath>
</defs>
</svg>
