<svg width="16" height="16" viewBox="0 0 16 16" fill="none" xmlns="http://www.w3.org/2000/svg">
<g clip-path="url(#clip0_372_16328)">
<path d="M7.96004 13.96C4.68004 13.96 2.04004 11.24 2.04004 7.96004C2.04004 4.68004 4.68004 2.04004 7.96004 2.04004C11.24 2.04004 13.88 4.68004 13.88 7.96004C13.88 11.24 11.24 13.96 7.96004 13.96ZM7.96004 3.00004C5.24004 3.00004 3.00004 5.24004 3.00004 7.96004C3.00004 10.68 5.24004 12.92 7.96004 12.92C10.68 12.92 12.92 10.68 12.92 7.96004C12.92 5.24004 10.76 3.00004 7.96004 3.00004Z" fill="#677487"/>
<path d="M7.95998 6.28007C8.22508 6.28007 8.43998 6.06516 8.43998 5.80007C8.43998 5.53497 8.22508 5.32007 7.95998 5.32007C7.69488 5.32007 7.47998 5.53497 7.47998 5.80007C7.47998 6.06516 7.69488 6.28007 7.95998 6.28007Z" fill="#677487"/>
<path d="M8.43998 6.92017H7.47998V10.6802H8.43998V6.92017Z" fill="#677487"/>
</g>
<defs>
<clipPath id="clip0_372_16328">
<rect width="11.92" height="11.92" fill="white" transform="translate(2.04004 2.04004)"/>
</clipPath>
</defs>
</svg>
