<svg width="20" height="20" viewBox="0 0 20 20" fill="none" xmlns="http://www.w3.org/2000/svg">
<path fill-rule="evenodd" clip-rule="evenodd" d="M16.7624 4V12.6364H18V14C18 15.0909 17.116 16 16.0552 16H3.94475C2.88398 16 2 15.0909 2 14V12.6364H3.06077V4H16.7624ZM15.6133 5.18182H4.20994V12.6364H15.6133V5.18182ZM15.9669 14.8182C16.4088 14.8182 16.7624 14.4545 16.7624 14V13.8182H3.14917V14C3.14917 14.4545 3.50276 14.8182 3.94475 14.8182H15.9669ZM9.95583 6.09082C11.0166 6.09082 11.8122 6.72718 12.1658 7.72718C12.873 7.99991 13.4033 8.72718 13.4917 9.63628C13.4917 10.8181 12.6078 11.7272 11.4586 11.7272H8.18788C7.2155 11.7272 6.41992 10.909 6.41992 9.909C6.41992 9.09082 6.95031 8.45446 7.65749 8.27264C7.74589 6.99991 8.80666 6.09082 9.95583 6.09082ZM8.18788 10.5454H11.3702C11.9006 10.5454 12.2542 10.0908 12.431 9.81809C12.431 9.36355 12.1658 8.99991 11.7238 8.909L11.2818 8.81809L11.1934 8.36355C11.105 7.81809 10.5746 7.36355 10.0442 7.36355C9.42545 7.36355 8.89506 7.909 8.89506 8.54537V9.45446H8.18788C7.92268 9.45446 7.65749 9.63628 7.65749 9.99991C7.65749 10.2726 7.83429 10.5454 8.18788 10.5454Z" fill="#677487"/>
</svg>
