<svg width="17" height="20" viewBox="0 0 17 20" fill="none" xmlns="http://www.w3.org/2000/svg">
<path fill-rule="evenodd" clip-rule="evenodd" d="M11.9476 2.45373L10.5169 4.96443C10.458 5.06727 10.3236 5.105 10.2167 5.04877C10.1097 4.99337 10.0699 4.86479 10.1287 4.76195L11.5594 2.25074C11.6182 2.14841 11.7527 2.11068 11.8596 2.16639C11.9665 2.22221 12.006 2.35089 11.9476 2.45373ZM8.889 5.11378C8.06302 5.11378 7.83568 4.59451 7.77737 4.33508C7.75253 4.23285 7.75199 4.16092 7.75199 4.12639C7.75199 4.00391 7.85566 3.90469 7.9831 3.90469C8.10244 3.90469 8.19953 3.99099 8.2126 4.10107C8.2126 4.10211 8.21357 4.10262 8.21357 4.10355C8.21476 4.11027 8.21573 4.12226 8.21692 4.13818C8.21843 4.15058 8.22059 4.16309 8.22059 4.17642C8.22059 4.18521 8.22124 4.19399 8.22167 4.2034C8.22394 4.22138 8.2261 4.24102 8.22977 4.26118C8.23841 4.30417 8.25353 4.35213 8.27891 4.40071C8.28215 4.40536 8.28431 4.41012 8.28701 4.41466C8.36531 4.55409 8.52623 4.69105 8.83727 4.70665C9.30534 4.71947 9.44347 4.5696 9.4452 4.38355C9.42738 4.16825 9.41388 4.01311 8.87334 3.80185C8.24111 3.55482 7.83784 3.40546 7.83784 2.88836C7.83784 2.37156 8.33939 2.15813 8.79882 2.15813C8.91449 2.15813 9.01482 2.17115 9.10446 2.19182C9.28374 2.22583 9.48235 2.29621 9.63085 2.43575V2.43461C9.66865 2.46665 9.70861 2.51378 9.74371 2.57043C9.74749 2.57632 9.75127 2.5819 9.75451 2.58758C9.76369 2.60309 9.77233 2.61962 9.78097 2.63668C9.78367 2.64236 9.78637 2.64753 9.78907 2.65322C9.83442 2.74924 9.86682 2.86293 9.86682 2.97921C9.86682 2.99988 9.86952 3.03451 9.86196 3.07327C9.86142 3.07678 9.86034 3.07999 9.8598 3.0836C9.85765 3.09239 9.8544 3.10117 9.85062 3.11048C9.849 3.11461 9.84792 3.11823 9.84576 3.12185C9.84469 3.12495 9.84307 3.12805 9.84091 3.13177C9.80257 3.20391 9.72535 3.25415 9.63463 3.25415C9.55471 3.25415 9.4857 3.21539 9.44401 3.15699C9.44088 3.15172 9.43764 3.14665 9.43483 3.14138C9.42835 3.13125 9.42306 3.11978 9.41863 3.10831C9.4182 3.10696 9.41712 3.10541 9.41712 3.10386C9.41496 3.09818 9.4128 3.09187 9.41172 3.08629C9.40081 3.05115 9.39606 3.01342 9.39606 2.9819C9.39606 2.97508 9.39552 2.96887 9.39498 2.96216C9.39498 2.95172 9.39433 2.94252 9.39336 2.9328C9.38634 2.87792 9.36949 2.83461 9.34908 2.79947C9.34692 2.79585 9.34476 2.79223 9.3426 2.78862C9.33828 2.78242 9.3345 2.77673 9.33018 2.77043C9.21462 2.61136 8.96784 2.53063 8.78759 2.53063C8.54459 2.53063 8.28377 2.65838 8.28377 2.89301C8.28377 3.12701 8.51759 3.26758 8.91384 3.39265C9.68809 3.66397 9.84792 3.8835 9.91758 4.1512C9.99426 4.44412 9.86142 5.11378 8.889 5.11378ZM13.2062 2.662C12.7775 0.821485 10.8413 -0.332417 8.88263 0.0855676C6.92331 0.504276 5.68305 2.33539 6.11223 4.17601C6.25371 4.78417 6.55989 5.3174 6.97774 5.74366C7.19212 5.96329 6.71422 7.17435 6.9799 7.33249C7.1986 7.46273 8.15417 6.55027 8.39825 6.63399C9.02832 6.8495 9.73075 6.90262 10.4359 6.75234C12.3947 6.33415 13.6353 4.50304 13.2062 2.662Z" fill="#1F263E"/>
<path fill-rule="evenodd" clip-rule="evenodd" d="M15.4577 8.69008C15.3643 8.71199 15.2867 8.77263 15.219 8.83673C14.8978 9.14399 14.6389 9.73039 14.593 9.96631C14.5942 9.95895 14.6043 9.95739 14.6284 9.95365C14.668 9.94752 14.7456 9.93552 14.8842 9.88223C14.9649 9.85064 15.0409 9.81548 15.1146 9.77115C15.2753 9.67495 15.4255 9.55979 15.5402 9.4165C15.6614 9.26526 15.7707 9.03963 15.7319 8.846C15.7073 8.72004 15.5926 8.65838 15.4577 8.69008ZM15.8229 11.1594C15.9076 11.0581 16.0307 10.9109 16.151 10.9476C16.2535 10.9788 16.3207 11.1422 16.3599 11.2376C16.3648 11.2494 16.3692 11.2601 16.3732 11.2694C16.3732 11.2694 16.4777 11.5075 16.4027 11.6512C16.3279 11.7949 15.7909 12.2478 15.6674 12.3383C15.5451 12.4286 15.1043 12.6883 14.7159 12.779C14.4072 12.8509 14.0527 12.8194 13.7921 12.638C13.6251 12.5224 13.5076 12.3527 13.4366 12.1702C13.365 11.9883 13.3377 11.7943 13.3251 11.6007C13.2765 10.8074 13.5026 9.95194 13.9074 9.25303C14.263 8.63749 14.4062 8.46119 14.8328 8.12458C15.1507 7.87286 15.5004 7.81273 15.9095 7.87785C16.0258 7.8963 16.1389 7.93706 16.235 8.00075C16.8846 8.42919 16.4885 9.32937 16.1373 9.82211C15.8827 10.1788 15.5135 10.4381 15.0939 10.6052C14.9529 10.6617 14.6859 10.7606 14.4285 10.7662C14.4181 10.7666 14.3154 11.0183 14.293 11.1665C14.2675 11.3378 14.2833 11.6042 14.411 11.7163C14.7126 11.9828 15.2425 11.6547 15.4774 11.4687C15.4989 11.4516 15.5206 11.4348 15.5424 11.418C15.6279 11.3517 15.7137 11.2853 15.7838 11.2053C15.7956 11.192 15.8088 11.1764 15.8229 11.1594ZM12.396 9.90441C12.3668 10.285 12.2692 10.6533 12.1365 11.0116C12.0239 11.3158 11.9017 11.6334 11.663 11.8657C11.4543 12.0698 11.0128 12.2045 10.771 11.9505C10.771 11.9505 10.8855 11.3551 11.0552 10.7535C11.2156 10.1843 11.4129 9.51365 11.8273 9.23021C12.3403 8.87788 12.423 9.55641 12.396 9.90441ZM13.0313 8.41316C12.7768 8.08272 12.2477 8.12858 11.9645 8.27526C11.6801 8.42194 11.3742 8.83046 11.3213 8.95235L11.376 8.59082C11.376 8.59082 11.4547 8.4679 11.1313 8.39456C10.8084 8.32122 10.6403 8.30057 10.5676 8.5495C10.5292 8.68089 10.1711 10.435 9.84159 12.0617C9.76494 12.1236 9.66164 12.1836 9.52517 12.2218C9.13498 12.3319 9.53835 10.8456 9.53835 10.8456C9.53835 10.8456 9.8743 9.39124 9.92744 9.17425C9.9808 8.95675 9.95884 8.74696 9.70303 8.67498C9.44722 8.60351 9.19481 8.59014 9.11851 8.81792L9.0422 9.04581C9.0422 9.04581 8.76828 8.70583 8.2101 8.78244C7.65193 8.85916 6.97573 9.59013 6.57225 10.7356C6.16888 11.881 6.31545 12.5632 6.38572 12.8434C6.45543 13.1236 6.61781 13.4999 7.18697 13.5795C7.75623 13.6598 8.17716 13.2671 8.39565 12.7565C8.39565 12.7565 8.40608 13.1847 8.79627 13.3067C9.05514 13.3871 9.38229 13.255 9.63026 13.1066L9.44732 14.0136C8.2071 14.1848 6.72317 14.3979 6.35905 14.4718C6.23453 14.4969 6.06628 14.5258 5.86923 14.5596L5.86922 14.5596L5.86917 14.5596C5.62808 14.6009 5.34387 14.6497 5.04392 14.708C5.04446 14.7064 5.04511 14.705 5.04565 14.7028C5.04565 14.7028 6.51091 9.70722 6.54985 9.56609L6.55965 9.53095C6.60554 9.36779 6.70414 9.01724 6.54985 8.966C6.38339 8.91131 6.13299 8.9356 5.89612 9.07043C5.65882 9.20535 5.49874 9.40076 5.43006 9.60383C5.41028 9.66173 5.37866 9.75602 5.34135 9.8673L5.34122 9.86767L5.34119 9.86776L5.34118 9.86779C5.24793 10.1459 5.11916 10.5299 5.05052 10.7178C4.95426 10.9813 4.63086 11.8589 4.39679 12.2C4.14045 12.5739 3.81381 12.8432 3.57045 12.6778C3.38019 12.5485 3.47429 12.1386 3.53162 11.8999C3.57539 11.7192 3.68169 11.3948 3.76382 11.1441L3.76383 11.1441L3.76383 11.1441C3.79027 11.0634 3.8142 10.9904 3.83274 10.9322C3.84458 10.8956 3.85731 10.8573 3.87046 10.8178L3.87047 10.8178L3.87047 10.8178C3.94312 10.5992 4.02825 10.3432 4.04473 10.1357C4.06366 9.89126 3.85869 9.67051 3.66995 9.63495C3.48186 9.59876 3.28231 9.56609 3.20508 9.70722C3.15668 9.79541 3.15859 9.91204 3.16063 10.0364C3.16186 10.1111 3.16313 10.1886 3.15359 10.2644C3.13635 10.4003 3.08063 10.5316 3.02583 10.6608L3.02583 10.6608L3.02582 10.6608C3.00706 10.705 2.98841 10.7489 2.97145 10.7927C2.8979 10.984 2.82543 11.1766 2.75837 11.3706C2.65887 11.6579 2.56974 11.9494 2.50214 12.2451C2.43616 12.533 2.37235 12.839 2.4009 13.1346C2.42264 13.3641 2.51501 13.5967 2.69943 13.7451C2.85193 13.8675 3.05733 13.9228 3.25581 13.9104C3.59435 13.8893 3.90629 13.6732 4.13991 13.4515L4.17579 13.4175C4.28249 13.3169 4.42735 13.1804 4.47186 13.052C4.41191 13.2263 4.35139 13.4004 4.29088 13.5745L4.29086 13.5746L4.29082 13.5747C4.13693 14.0175 3.98307 14.4602 3.83868 14.9055C3.83003 14.9318 3.82138 14.9582 3.80245 14.9784C3.78082 15.0028 3.74891 15.0151 3.71754 15.0271C3.69627 15.0351 3.67509 15.0435 3.65383 15.0519L3.6538 15.0519L3.64789 15.0542C3.4824 15.1085 3.32503 15.1681 3.1828 15.2316C2.82435 15.393 2.52312 15.5747 2.28636 15.7401C1.95214 15.9563 1.64075 16.2033 1.36548 16.485C1.0092 16.8484 0.716079 17.2712 0.518794 17.7318C0.334812 18.1592 0.182954 18.6621 0.308961 19.1181C0.430534 19.5588 0.816128 19.8903 1.29409 19.9393C1.62939 19.9745 1.96999 19.8784 2.26094 19.7155C2.55135 19.5523 2.79677 19.3237 3.01742 19.0802C3.66682 18.3624 4.08529 17.5059 4.40912 16.6184C4.4936 16.3869 4.57407 16.1537 4.65411 15.9207C5.63178 15.6627 7.99358 15.2399 8.60296 15.1395C8.73016 15.1187 8.95839 15.0861 9.24674 15.0466C9.23424 15.1641 9.23106 15.3145 9.27537 15.4175C9.35848 15.609 9.64232 15.721 9.91679 15.4175C9.99978 15.3255 10.0671 15.1485 10.1234 14.9295C10.8468 14.8345 11.6655 14.7296 12.2546 14.6541L12.2547 14.6541L12.2548 14.6541L12.2556 14.654C12.5382 14.6178 12.768 14.5884 12.9087 14.5701C13.1002 14.5454 13.3495 14.5207 13.6152 14.4944L13.6152 14.4944C14.3365 14.423 15.1785 14.3397 15.3116 14.2124C15.4944 14.0376 15.4555 13.7989 15.3598 13.6514C15.2635 13.5047 15.1387 13.4127 14.533 13.4314C14.0098 13.4469 12.3177 13.6481 11.4972 13.7456C11.3679 13.7609 11.2602 13.7737 11.1822 13.7828C11.0425 13.7989 10.7204 13.8408 10.3045 13.8968C10.313 13.8334 10.3213 13.7712 10.3293 13.7108L10.3293 13.7107C10.3508 13.5482 10.3706 13.3987 10.3901 13.2755C10.4849 12.6719 10.518 12.5288 10.518 12.5288C10.518 12.5288 10.7511 12.8582 11.2922 12.9398C11.9232 13.0349 12.3734 12.5958 12.7061 11.9715C13.0495 11.3292 13.2711 10.4143 13.3086 9.88169C13.3455 9.36749 13.2865 8.74318 13.0313 8.41316ZM8.4456 11.3998C8.64707 10.8286 8.8067 10.2929 8.87477 9.96795C8.94614 9.62663 8.69252 9.55372 8.47415 9.63383C8.20242 9.73317 7.83363 9.9299 7.53445 10.5685C7.37646 10.9069 7.28578 11.2574 7.26272 11.5539C7.23967 11.8507 7.28742 12.3803 7.65852 12.4476C7.99052 12.5072 8.22986 12.0101 8.4456 11.3998ZM3.24066 16.7574C3.28339 16.6603 3.32449 16.5626 3.36288 16.4643C3.36573 16.4568 3.37081 16.4393 3.37725 16.4171L3.37726 16.417C3.39653 16.3506 3.42793 16.2423 3.44779 16.2354C3.44779 16.2354 2.56044 16.5475 1.88508 17.354C1.34655 17.9969 1.09832 18.6518 1.29409 18.8792C1.53908 19.1646 2.00784 18.6936 2.16468 18.5225C2.48256 18.1759 2.72701 17.7746 2.94441 17.3648C3.04976 17.1652 3.14981 16.9632 3.24066 16.7574Z" fill="#1F263E"/>
</svg>
